<?xml version="1.0" standalone="no"?>
<!DOCTYPE svg PUBLIC "-//W3C//DTD SVG 20010904//EN"
 "http://www.w3.org/TR/2001/REC-SVG-20010904/DTD/svg10.dtd">
<svg version="1.0" xmlns="http://www.w3.org/2000/svg"
 width="120.000000pt" height="111.000000pt" viewBox="0 0 120.000000 111.000000"
 preserveAspectRatio="xMidYMid meet">

<g transform="translate(0.000000,111.000000) scale(0.100000,-0.100000)"
fill="#ffffff" stroke="none">
<path d="M464 1031 c-343 -98 -458 -531 -209 -786 186 -190 487 -192 675 -5
221 222 170 592 -103 749 -103 59 -246 76 -363 42z m288 -113 c79 -37 142 -98
181 -177 30 -61 32 -73 32 -166 0 -93 -2 -105 -32 -166 -39 -79 -102 -140
-181 -177 -50 -24 -70 -27 -157 -27 -87 0 -107 3 -157 27 -31 14 -77 45 -102
68 -136 126 -155 355 -43 502 44 57 94 95 163 124 83 34 212 31 296 -8z"/>
<path d="M550 670 l0 -140 45 0 45 0 0 140 0 140 -45 0 -45 0 0 -140z"/>
<path d="M550 385 l0 -45 45 0 45 0 0 45 0 45 -45 0 -45 0 0 -45z"/>
</g>
</svg>
